<svg xmlns="http://www.w3.org/2000/svg" viewBox="0 0 1120 420" width="1120" height="420" style="background:#fbf9f5">
  <defs>
    <style>
      .label { font-family: 'Space Mono', 'Courier New', monospace; font-size: 9px; fill: #50A38C; letter-spacing: 0.12em; text-transform: uppercase; }
      .sublabel { font-family: 'Space Mono', 'Courier New', monospace; font-size: 7.5px; fill: #777777; letter-spacing: 0.08em; }
      .tick-label { font-family: 'Space Mono', 'Courier New', monospace; font-size: 6.5px; fill: #9a988f; letter-spacing: 0.06em; }
      .piece-outline { fill: #ffffff; stroke: #6D9EEB; stroke-width: 1.5; }
      .piece-outline-accent { fill: #ffffff; stroke: #AD623B; stroke-width: 1.5; }
      .dashed-seam { fill: none; stroke: #AD623B; stroke-width: 1; stroke-dasharray: 4 3; opacity: 0.7; }
      .connector { fill: none; stroke: #6D9EEB; stroke-width: 0.75; stroke-dasharray: 3 4; opacity: 0.5; }
      .notch { fill: #fbf9f5; stroke: #6D9EEB; stroke-width: 1.5; }
      .notch-accent { fill: #fbf9f5; stroke: #AD623B; stroke-width: 1.5; }
      .tick { stroke: #ddd8cc; stroke-width: 1; }
      .grain-arrow { fill: none; stroke: #9a988f; stroke-width: 1; }
    </style>
  </defs>

  <!-- Measurement tick border along top edge -->
  <line x1="40" y1="22" x2="1080" y2="22" stroke="#ddd8cc" stroke-width="0.75"/>
  <line x1="40" y1="18" x2="40" y2="26" class="tick"/>
  <line x1="160" y1="18" x2="160" y2="26" class="tick"/>
  <line x1="280" y1="18" x2="280" y2="26" class="tick"/>
  <line x1="400" y1="18" x2="400" y2="26" class="tick"/>
  <line x1="520" y1="18" x2="520" y2="26" class="tick"/>
  <line x1="640" y1="18" x2="640" y2="26" class="tick"/>
  <line x1="760" y1="18" x2="760" y2="26" class="tick"/>
  <line x1="880" y1="18" x2="880" y2="26" class="tick"/>
  <line x1="1000" y1="18" x2="1000" y2="26" class="tick"/>
  <line x1="1080" y1="18" x2="1080" y2="26" class="tick"/>
  <text x="40" y="14" class="tick-label" text-anchor="middle">0</text>
  <text x="160" y="14" class="tick-label" text-anchor="middle">1</text>
  <text x="280" y="14" class="tick-label" text-anchor="middle">2</text>
  <text x="400" y="14" class="tick-label" text-anchor="middle">3</text>
  <text x="520" y="14" class="tick-label" text-anchor="middle">4</text>
  <text x="640" y="14" class="tick-label" text-anchor="middle">5</text>
  <text x="760" y="14" class="tick-label" text-anchor="middle">6</text>
  <text x="880" y="14" class="tick-label" text-anchor="middle">7</text>

  <!-- ===== PIECE 1: Brand Identity — large, center-left, foundational ===== -->
  <!-- Notch corners: clip a small square from each corner -->
  <polygon class="piece-outline" points="
    56,48  72,48
    72,40  244,40
    244,48 260,48
    260,64  268,64
    268,240 260,240
    260,248 244,248
    244,240 72,240
    72,248  56,248
    56,240  48,240
    48,64   56,64
  "/>
  <!-- Notch marks -->
  <rect class="notch" x="48" y="40" width="16" height="16"/>
  <rect class="notch" x="244" y="40" width="16" height="16"/>
  <rect class="notch" x="48" y="232" width="16" height="16"/>
  <rect class="notch" x="244" y="232" width="16" height="16"/>
  <!-- Grain arrow (vertical center) -->
  <line x1="158" y1="90" x2="158" y2="190" class="grain-arrow"/>
  <polyline points="151,100 158,90 165,100" class="grain-arrow"/>
  <polyline points="151,180 158,190 165,180" class="grain-arrow"/>
  <!-- Labels -->
  <text x="158" y="130" class="label" text-anchor="middle">01 — Brand Identity</text>
  <text x="158" y="148" class="sublabel" text-anchor="middle">True North / Persona</text>
  <text x="158" y="222" class="tick-label" text-anchor="middle">CUT 1 — FOUNDATION</text>
  <!-- Stitch detail along bottom -->
  <line x1="60" y1="236" x2="248" y2="236" stroke="#ddd8cc" stroke-width="0.75" stroke-dasharray="2 3"/>

  <!-- ===== PIECE 2: Voice & Tone — medium, upper-center ===== -->
  <polygon class="piece-outline" points="
    288,48  302,48
    302,40  446,40
    446,48  460,48
    460,64  468,64
    468,168 460,168
    460,176 446,176
    446,168 302,168
    302,176 288,176
    288,168 280,168
    280,64  288,64
  "/>
  <rect class="notch" x="280" y="40" width="16" height="16"/>
  <rect class="notch" x="446" y="40" width="16" height="16"/>
  <rect class="notch" x="280" y="160" width="16" height="16"/>
  <rect class="notch" x="446" y="160" width="16" height="16"/>
  <text x="374" y="104" class="label" text-anchor="middle">02 — Voice &amp; Tone</text>
  <text x="374" y="120" class="sublabel" text-anchor="middle">Register / Examples</text>
  <text x="374" y="158" class="tick-label" text-anchor="middle">CUT 1</text>

  <!-- ===== PIECE 3: Writing Mechanics — small, upper right ===== -->
  <polygon class="piece-outline-accent" points="
    488,48  500,48
    500,40  618,40
    618,48  630,48
    630,62  636,62
    636,148 630,148
    630,156 618,156
    618,148 500,148
    500,156 488,156
    488,148 482,148
    482,62  488,62
  "/>
  <rect class="notch-accent" x="482" y="40" width="14" height="14"/>
  <rect class="notch-accent" x="618" y="40" width="14" height="14"/>
  <rect class="notch-accent" x="482" y="142" width="14" height="14"/>
  <rect class="notch-accent" x="618" y="142" width="14" height="14"/>
  <text x="559" y="92" class="label" text-anchor="middle">03 — Writing</text>
  <text x="559" y="106" class="label" text-anchor="middle">Mechanics</text>
  <text x="559" y="120" class="sublabel" text-anchor="middle">Structure / Tense / Rules</text>
  <text x="559" y="140" class="tick-label" text-anchor="middle">CUT 1</text>

  <!-- ===== PIECE 4: Language Rules — medium, right ===== -->
  <polygon class="piece-outline" points="
    656,48  670,48
    670,40  814,40
    814,48  828,48
    828,64  836,64
    836,196 828,196
    828,204 814,204
    814,196 670,196
    670,204 656,204
    656,196 648,196
    648,64  656,64
  "/>
  <rect class="notch" x="648" y="40" width="16" height="16"/>
  <rect class="notch" x="814" y="40" width="16" height="16"/>
  <rect class="notch" x="648" y="188" width="16" height="16"/>
  <rect class="notch" x="814" y="188" width="16" height="16"/>
  <!-- Grain arrow -->
  <line x1="742" y1="88" x2="742" y2="158" class="grain-arrow"/>
  <polyline points="736,98 742,88 748,98" class="grain-arrow"/>
  <polyline points="736,148 742,158 748,148" class="grain-arrow"/>
  <text x="742" y="120" class="label" text-anchor="middle">04 — Language</text>
  <text x="742" y="136" class="label" text-anchor="middle">Rules</text>
  <text x="742" y="152" class="sublabel" text-anchor="middle">Own / Avoid</text>
  <text x="742" y="186" class="tick-label" text-anchor="middle">CUT 1 — SEAM ALLOWANCE 5/8 IN</text>

  <!-- ===== PIECE 5: Cross-Brand Governance — wide, lower-center ===== -->
  <polygon class="piece-outline-accent" points="
    288,196  302,196
    302,188  618,188
    618,196  632,196
    632,210  638,210
    638,310  632,310
    632,318  618,318
    618,310  302,310
    302,318  288,318
    288,310  282,310
    282,210  288,210
  "/>
  <rect class="notch-accent" x="282" y="188" width="14" height="14"/>
  <rect class="notch-accent" x="620" y="188" width="14" height="14"/>
  <rect class="notch-accent" x="282" y="304" width="14" height="14"/>
  <rect class="notch-accent" x="620" y="304" width="14" height="14"/>
  <!-- Stitch detail -->
  <line x1="294" y1="296" x2="626" y2="296" stroke="#AD623B" stroke-width="0.75" stroke-dasharray="2 3" opacity="0.5"/>
  <text x="460" y="248" class="label" text-anchor="middle">05 — Cross-Brand Governance</text>
  <text x="460" y="264" class="sublabel" text-anchor="middle">Shared / Separate / Adaptation Rules</text>
  <text x="460" y="308" class="tick-label" text-anchor="middle">CUT 1 — MOST REFERENCED BY TEAM</text>

  <!-- ===== PIECE 6: Tone Calibration — lower-right ===== -->
  <polygon class="piece-outline" points="
    656,220  670,220
    670,212  814,212
    814,220  828,220
    828,234  836,234
    836,334  828,334
    828,342  814,342
    814,334  670,334
    670,342  656,342
    656,334  648,334
    648,234  656,234
  "/>
  <rect class="notch" x="648" y="212" width="16" height="16"/>
  <rect class="notch" x="814" y="212" width="16" height="16"/>
  <rect class="notch" x="648" y="326" width="16" height="16"/>
  <rect class="notch" x="814" y="326" width="16" height="16"/>
  <text x="742" y="268" class="label" text-anchor="middle">06 — Tone Calibration</text>
  <text x="742" y="284" class="label" text-anchor="middle">by Channel</text>
  <text x="742" y="300" class="sublabel" text-anchor="middle">PDP / Blog / Email / Social</text>
  <text x="742" y="326" class="tick-label" text-anchor="middle">CUT 1</text>

  <!-- ===== PIECE 7: Quality Check — small, lower-far-right ===== -->
  <polygon class="piece-outline" points="
    856,48  868,48
    868,40  974,40
    974,48  986,48
    986,62  992,62
    992,260  986,260
    986,268  974,268
    974,260  868,260
    868,268  856,268
    856,260  850,260
    850,62   856,62
  "/>
  <rect class="notch" x="850" y="40" width="14" height="14"/>
  <rect class="notch" x="974" y="40" width="14" height="14"/>
  <rect class="notch" x="850" y="254" width="14" height="14"/>
  <rect class="notch" x="974" y="254" width="14" height="14"/>
  <!-- Checklist tick marks as decoration -->
  <line x1="868" y1="106" x2="890" y2="106" stroke="#ddd8cc" stroke-width="1"/>
  <line x1="868" y1="118" x2="890" y2="118" stroke="#ddd8cc" stroke-width="1"/>
  <line x1="868" y1="130" x2="890" y2="130" stroke="#ddd8cc" stroke-width="1"/>
  <line x1="868" y1="142" x2="890" y2="142" stroke="#ddd8cc" stroke-width="1"/>
  <line x1="868" y1="154" x2="890" y2="154" stroke="#ddd8cc" stroke-width="1"/>
  <line x1="894" y1="106" x2="972" y2="106" stroke="#ddd8cc" stroke-width="0.75" opacity="0.4"/>
  <line x1="894" y1="118" x2="972" y2="118" stroke="#ddd8cc" stroke-width="0.75" opacity="0.4"/>
  <line x1="894" y1="130" x2="972" y2="130" stroke="#ddd8cc" stroke-width="0.75" opacity="0.4"/>
  <line x1="894" y1="142" x2="972" y2="142" stroke="#ddd8cc" stroke-width="0.75" opacity="0.4"/>
  <line x1="894" y1="154" x2="972" y2="154" stroke="#ddd8cc" stroke-width="0.75" opacity="0.4"/>
  <text x="921" y="204" class="label" text-anchor="middle">07 — Quality</text>
  <text x="921" y="218" class="label" text-anchor="middle">Check</text>
  <text x="921" y="232" class="sublabel" text-anchor="middle">Self-Audit Checklist</text>
  <text x="921" y="250" class="tick-label" text-anchor="middle">CUT 1</text>

  <!-- ===== Connector lines between pieces ===== -->
  <!-- 1 → 2 -->
  <line x1="268" y1="120" x2="280" y2="108" class="connector"/>
  <!-- 2 → 3 -->
  <line x1="468" y1="108" x2="482" y2="94" class="connector"/>
  <!-- 3 → 4 (across gap) -->
  <line x1="636" y1="94" x2="648" y2="108" class="connector"/>
  <!-- 4 → 7 -->
  <line x1="836" y1="120" x2="850" y2="100" class="connector"/>
  <!-- 1 → 5 (down) -->
  <line x1="158" y1="248" x2="320" y2="260" class="connector"/>
  <!-- 2 → 5 -->
  <line x1="374" y1="176" x2="420" y2="188" class="connector"/>
  <!-- 5 → 6 (right) -->
  <line x1="638" y1="258" x2="648" y2="258" class="connector"/>

  <!-- ===== Dashed seam lines at bottom ===== -->
  <line x1="48" y1="358" x2="840" y2="358" class="dashed-seam"/>
  <text x="48" y="374" class="tick-label">SEAM ALLOWANCE — VOICE DRIFT MARGIN: ZERO</text>

  <!-- ===== Far-right schematic annotation ===== -->
  <line x1="1008" y1="40" x2="1008" y2="380" stroke="#ddd8cc" stroke-width="0.75"/>
  <line x1="1004" y1="40" x2="1012" y2="40" class="tick"/>
  <line x1="1004" y1="144" x2="1012" y2="144" class="tick"/>
  <line x1="1004" y1="248" x2="1012" y2="248" class="tick"/>
  <line x1="1004" y1="352" x2="1012" y2="352" class="tick"/>
  <text x="1020" y="44" class="tick-label">FOUNDATION</text>
  <text x="1020" y="148" class="tick-label">STRUCTURE</text>
  <text x="1020" y="252" class="tick-label">GOVERNANCE</text>
  <text x="1020" y="356" class="tick-label">OUTPUT</text>
</svg>
