<svg xmlns="http://www.w3.org/2000/svg" viewBox="0 0 1120 420" width="1120" height="420">
  <rect x="0" y="0" width="1120" height="420" fill="#ffffff"></rect>
  <path d="M 53 110 L 167 110 Q 185 110 185 128 L 185 190 Q 197 210 185 230 L 185 292 Q 185 310 167 310 L 53 310 Q 35 310 35 292 L 35 128 Q 35 110 53 110 Z" fill="none" stroke="#ad623b" stroke-width="2"></path>
  <text x="110" y="144" font-family="DM Sans, Arial, sans-serif" font-weight="700" font-size="13" fill="#ad623b" text-anchor="middle">01</text>
  <text x="110" y="170" font-family="Instrument Serif, Georgia, serif" font-style="italic" font-size="16" fill="#1a1a1a" text-anchor="middle">brand identity</text>
  <text x="110" y="258" font-family="DM Sans, Arial, sans-serif" font-size="10.5" fill="#6b6b66" text-anchor="middle">true north</text>
  <path d="M 203 110 L 317 110 Q 335 110 335 128 L 335 190 Q 347 210 335 230 L 335 292 Q 335 310 317 310 L 203 310 Q 185 310 185 292 L 185 230 Q 197 210 185 190 L 185 128 Q 185 110 203 110 Z" fill="none" stroke="#50a38c" stroke-width="2"></path>
  <text x="260" y="144" font-family="DM Sans, Arial, sans-serif" font-weight="700" font-size="13" fill="#50a38c" text-anchor="middle">02</text>
  <text x="260" y="170" font-family="Instrument Serif, Georgia, serif" font-style="italic" font-size="16" fill="#1a1a1a" text-anchor="middle">voice &amp; tone</text>
  <text x="260" y="258" font-family="DM Sans, Arial, sans-serif" font-size="10.5" fill="#6b6b66" text-anchor="middle">register</text>
  <path d="M 353 110 L 467 110 Q 485 110 485 128 L 485 190 Q 497 210 485 230 L 485 292 Q 485 310 467 310 L 353 310 Q 335 310 335 292 L 335 230 Q 347 210 335 190 L 335 128 Q 335 110 353 110 Z" fill="none" stroke="#6d9eeb" stroke-width="2"></path>
  <text x="410" y="144" font-family="DM Sans, Arial, sans-serif" font-weight="700" font-size="13" fill="#6d9eeb" text-anchor="middle">03</text>
  <text x="410" y="170" font-family="Instrument Serif, Georgia, serif" font-style="italic" font-size="16" fill="#1a1a1a" text-anchor="middle">writing mechanics</text>
  <text x="410" y="258" font-family="DM Sans, Arial, sans-serif" font-size="10.5" fill="#6b6b66" text-anchor="middle">structure</text>
  <path d="M 503 110 L 617 110 Q 635 110 635 128 L 635 190 Q 647 210 635 230 L 635 292 Q 635 310 617 310 L 503 310 Q 485 310 485 292 L 485 230 Q 497 210 485 190 L 485 128 Q 485 110 503 110 Z" fill="none" stroke="#ad623b" stroke-width="2"></path>
  <text x="560" y="144" font-family="DM Sans, Arial, sans-serif" font-weight="700" font-size="13" fill="#ad623b" text-anchor="middle">04</text>
  <text x="560" y="170" font-family="Instrument Serif, Georgia, serif" font-style="italic" font-size="16" fill="#1a1a1a" text-anchor="middle">language rules</text>
  <text x="560" y="258" font-family="DM Sans, Arial, sans-serif" font-size="10.5" fill="#6b6b66" text-anchor="middle">own / avoid</text>
  <path d="M 653 110 L 767 110 Q 785 110 785 128 L 785 190 Q 797 210 785 230 L 785 292 Q 785 310 767 310 L 653 310 Q 635 310 635 292 L 635 230 Q 647 210 635 190 L 635 128 Q 635 110 653 110 Z" fill="none" stroke="#50a38c" stroke-width="2"></path>
  <text x="710" y="144" font-family="DM Sans, Arial, sans-serif" font-weight="700" font-size="13" fill="#50a38c" text-anchor="middle">05</text>
  <text x="710" y="170" font-family="Instrument Serif, Georgia, serif" font-style="italic" font-size="16" fill="#1a1a1a" text-anchor="middle">cross-brand</text>
  <text x="710" y="258" font-family="DM Sans, Arial, sans-serif" font-size="10.5" fill="#6b6b66" text-anchor="middle">governance</text>
  <path d="M 803 110 L 917 110 Q 935 110 935 128 L 935 190 Q 947 210 935 230 L 935 292 Q 935 310 917 310 L 803 310 Q 785 310 785 292 L 785 230 Q 797 210 785 190 L 785 128 Q 785 110 803 110 Z" fill="none" stroke="#6d9eeb" stroke-width="2"></path>
  <text x="860" y="144" font-family="DM Sans, Arial, sans-serif" font-weight="700" font-size="13" fill="#6d9eeb" text-anchor="middle">06</text>
  <text x="860" y="170" font-family="Instrument Serif, Georgia, serif" font-style="italic" font-size="16" fill="#1a1a1a" text-anchor="middle">tone calibration</text>
  <text x="860" y="258" font-family="DM Sans, Arial, sans-serif" font-size="10.5" fill="#6b6b66" text-anchor="middle">by channel</text>
  <path d="M 953 110 L 1067 110 Q 1085 110 1085 128 L 1085 292 Q 1085 310 1067 310 L 953 310 Q 935 310 935 292 L 935 230 Q 947 210 935 190 L 935 128 Q 935 110 953 110 Z" fill="none" stroke="#ad623b" stroke-width="2"></path>
  <text x="1010" y="144" font-family="DM Sans, Arial, sans-serif" font-weight="700" font-size="13" fill="#ad623b" text-anchor="middle">07</text>
  <text x="1010" y="170" font-family="Instrument Serif, Georgia, serif" font-style="italic" font-size="16" fill="#1a1a1a" text-anchor="middle">quality check</text>
  <text x="1010" y="258" font-family="DM Sans, Arial, sans-serif" font-size="10.5" fill="#6b6b66" text-anchor="middle">self-audit</text>
</svg>