<svg xmlns="http://www.w3.org/2000/svg" viewBox="0 0 1120 420" width="1120" height="420">
  <rect width="1120" height="420" fill="#ffffff"></rect>
  <g transform="rotate(-12 135 115)">
    <rect x="60" y="70" width="150" height="90" rx="14" fill="#ffffff" stroke="#ad623b" stroke-width="1.5"></rect>
    <text x="135" y="119" font-family="DM Sans, Arial, sans-serif" font-size="11" fill="#ad623b" text-anchor="middle">brandfolder</text>
  </g>
<g transform="rotate(9 225 215)">
    <rect x="150" y="170" width="150" height="90" rx="14" fill="#ffffff" stroke="#6d9eeb" stroke-width="1.5"></rect>
    <text x="225" y="219" font-family="DM Sans, Arial, sans-serif" font-size="11" fill="#6d9eeb" text-anchor="middle">notion</text>
  </g>
<g transform="rotate(-6 150 295)">
    <rect x="75" y="250" width="150" height="90" rx="14" fill="#ffffff" stroke="#50a38c" stroke-width="1.5"></rect>
    <text x="150" y="299" font-family="DM Sans, Arial, sans-serif" font-size="11" fill="#50a38c" text-anchor="middle">google drive</text>
  </g>
<g transform="rotate(15 270 139)">
    <rect x="205" y="100" width="130" height="78" rx="14" fill="#ffffff" stroke="#ad623b" stroke-width="1.5"></rect>
    <text x="270" y="143" font-family="DM Sans, Arial, sans-serif" font-size="11" fill="#ad623b" text-anchor="middle">slack</text>
  </g>
<g transform="rotate(-20 215 78)">
    <rect x="155" y="45" width="120" height="66" rx="14" fill="#ffffff" stroke="#6d9eeb" stroke-width="1.5"></rect>
    <text x="215" y="82" font-family="DM Sans, Arial, sans-serif" font-size="11" fill="#6d9eeb" text-anchor="middle">spreadsheet</text>
  </g>
  <circle cx="340" cy="210" r="5" fill="#50a38c"></circle>
  <path d="M 340 210 Q 380 178 420 210 T 500 210 T 580 210 T 660 210" fill="none" stroke="#50a38c" stroke-width="2" stroke-linecap="round"></path>
  <path d="M 650 200 L 664 210 L 650 220" fill="none" stroke="#50a38c" stroke-width="2" stroke-linecap="round" stroke-linejoin="round"></path>
  <rect x="722" y="122" width="356" height="176" rx="30" fill="none" stroke="#ece7db" stroke-width="1.5" stroke-dasharray="4 8"></rect>
  <rect x="740" y="140" width="320" height="140" rx="24" fill="#ffffff" stroke="#ad623b" stroke-width="2.5"></rect>
  <text x="900" y="205" font-family="Instrument Serif, Georgia, serif" font-style="italic" font-size="27" fill="#1a1a1a" text-anchor="middle">knowledge base</text>
  <text x="900" y="232" font-family="DM Sans, Arial, sans-serif" font-size="12" fill="#6b6b66" text-anchor="middle">single source of truth</text>
</svg>