<svg xmlns="http://www.w3.org/2000/svg" viewBox="0 0 1120 420" width="1120" height="420">
  <rect width="1120" height="420" fill="#ffffff"></rect>
  <circle cx="560" cy="210" r="150" fill="none" stroke="#1a1a1a" stroke-width="1.5" stroke-dasharray="4 8"></circle>
  <line x1="560.0" y1="144.0" x2="560.0" y2="86.0" stroke="#ece7db" stroke-width="1.5"></line><line x1="617.2" y1="177.0" x2="667.4" y2="148.0" stroke="#ece7db" stroke-width="1.5"></line><line x1="617.2" y1="243.0" x2="667.4" y2="272.0" stroke="#ece7db" stroke-width="1.5"></line><line x1="560.0" y1="276.0" x2="560.0" y2="334.0" stroke="#ece7db" stroke-width="1.5"></line><line x1="502.8" y1="243.0" x2="452.6" y2="272.0" stroke="#ece7db" stroke-width="1.5"></line><line x1="502.8" y1="177.0" x2="452.6" y2="148.0" stroke="#ece7db" stroke-width="1.5"></line>
  <circle cx="560" cy="210" r="74" fill="#ffffff" stroke="#1a1a1a" stroke-width="2"></circle>
  <text x="560" y="206" font-family="Instrument Serif, Georgia, serif" font-style="italic" font-size="21" fill="#1a1a1a" text-anchor="middle">voice velma</text>
  <text x="560" y="227" font-family="DM Sans, Arial, sans-serif" font-weight="600" font-size="9" letter-spacing="1" fill="#6b6b66" text-anchor="middle">SHARED AGENT</text>
  <rect x="490" y="38" width="140" height="44" rx="22" fill="#ffffff" stroke="#ad623b" stroke-width="2"></rect>
  <text x="560" y="66" font-family="DM Sans, Arial, sans-serif" font-weight="700" font-size="14" fill="#ad623b" text-anchor="middle">01</text><rect x="619.9038105676658" y="113" width="140" height="44" rx="22" fill="#ffffff" stroke="#50a38c" stroke-width="2"></rect>
  <text x="689.9038105676658" y="141" font-family="DM Sans, Arial, sans-serif" font-weight="700" font-size="14" fill="#50a38c" text-anchor="middle">02</text><rect x="619.9038105676658" y="263" width="140" height="44" rx="22" fill="#ffffff" stroke="#6d9eeb" stroke-width="2"></rect>
  <text x="689.9038105676658" y="291" font-family="DM Sans, Arial, sans-serif" font-weight="700" font-size="14" fill="#6d9eeb" text-anchor="middle">03</text><rect x="490" y="338" width="140" height="44" rx="22" fill="#ffffff" stroke="#ad623b" stroke-width="2"></rect>
  <text x="560" y="366" font-family="DM Sans, Arial, sans-serif" font-weight="700" font-size="14" fill="#ad623b" text-anchor="middle">04</text><rect x="360.0961894323342" y="263" width="140" height="44" rx="22" fill="#ffffff" stroke="#50a38c" stroke-width="2"></rect>
  <text x="430.0961894323342" y="291" font-family="DM Sans, Arial, sans-serif" font-weight="700" font-size="14" fill="#50a38c" text-anchor="middle">05</text><rect x="360.0961894323342" y="113" width="140" height="44" rx="22" fill="#ffffff" stroke="#6d9eeb" stroke-width="2"></rect>
  <text x="430.0961894323342" y="141" font-family="DM Sans, Arial, sans-serif" font-weight="700" font-size="14" fill="#6d9eeb" text-anchor="middle">06</text>
  <path d="M 460 396 Q 480 386 500 396 T 540 396 T 580 396 T 620 396 T 660 396" fill="none" stroke="#6d9eeb" stroke-width="2" stroke-linecap="round"></path>
</svg>