<svg xmlns="http://www.w3.org/2000/svg" viewBox="0 0 1120 420" width="1120" height="420">
  <rect width="1120" height="420" fill="#ffffff"></rect>

  <rect x="250" y="40" width="560" height="340" rx="20" fill="#ffffff" stroke="#1a1a1a" stroke-width="2"></rect>
  <circle cx="278" cy="66" r="4" fill="#ad623b"></circle>
  <circle cx="294" cy="66" r="4" fill="#50a38c"></circle>
  <circle cx="310" cy="66" r="4" fill="#6d9eeb"></circle>
  <line x1="250" y1="90" x2="810" y2="90" stroke="#ece7db" stroke-width="1.5"></line>

  <rect x="486" y="112" width="300" height="56" rx="18" fill="#fbf9f5" stroke="#1a1a1a" stroke-width="1.5"></rect>
  <text x="766" y="136" font-family="DM Sans, Arial, sans-serif" font-size="12.5" fill="#1a1a1a" text-anchor="end">@voice velma — draft the PDP</text>
  <text x="766" y="156" font-family="DM Sans, Arial, sans-serif" font-size="12.5" fill="#1a1a1a" text-anchor="end">for the DreamCloud 4 launch</text>
  <circle cx="806" cy="140" r="15" fill="#ffffff" stroke="#1a1a1a" stroke-width="1.5"></circle>
  <text x="806" y="145" font-family="Instrument Serif, Georgia, serif" font-style="italic" font-size="15" fill="#1a1a1a" text-anchor="middle">y</text>

  <circle cx="264" cy="204" r="15" fill="#ffffff" stroke="#50a38c" stroke-width="1.5"></circle>
  <text x="264" y="209" font-family="Instrument Serif, Georgia, serif" font-style="italic" font-size="15" fill="#50a38c" text-anchor="middle">v</text>
  <rect x="286" y="196" width="380" height="120" rx="18" fill="#ffffff" stroke="#50a38c" stroke-width="2"></rect>
  <text x="306" y="228" font-family="Instrument Serif, Georgia, serif" font-style="italic" font-size="15" fill="#50a38c">meet the DreamCloud 4 —</text>
  <text x="306" y="252" font-family="DM Sans, Arial, sans-serif" font-size="13" fill="#1a1a1a">engineered for effortless,</text>
  <text x="306" y="274" font-family="DM Sans, Arial, sans-serif" font-size="13" fill="#1a1a1a">elegant sleep.</text>

  <path d="M 812 122 Q 858 108 896 96" fill="none" stroke="#ece7db" stroke-width="1.5" stroke-dasharray="3 5"></path>
  <rect x="900" y="66" width="170" height="34" rx="17" fill="#ffffff" stroke="#ad623b" stroke-width="1.5"></rect>
  <text x="985" y="88" font-family="DM Sans, Arial, sans-serif" font-weight="600" font-size="11" fill="#ad623b" text-anchor="middle">nectar</text>
  <rect x="900" y="108" width="170" height="34" rx="17" fill="#ffffff" stroke="#50a38c" stroke-width="1.5"></rect>
  <text x="985" y="130" font-family="DM Sans, Arial, sans-serif" font-weight="600" font-size="11" fill="#50a38c" text-anchor="middle">dreamcloud</text>
  <rect x="900" y="150" width="170" height="34" rx="17" fill="#ffffff" stroke="#6d9eeb" stroke-width="1.5"></rect>
  <text x="985" y="172" font-family="DM Sans, Arial, sans-serif" font-weight="600" font-size="11" fill="#6d9eeb" text-anchor="middle">newton baby</text>
  <text x="985" y="204" font-family="DM Sans, Arial, sans-serif" font-size="11" fill="#9a988f" text-anchor="middle">+3 more brands</text>
</svg>